# xmcd
#
# Track frame offsets:
#	150
#	17737
#	33579
#	47729
#	64728
#	80504
#	97774
#	114889
#	130686
#	145016
#	160498
#	179313
#	196078
#	209053
#	223831
#	240303
#	256049
#	269976
#	287740
#	303772
#
# Disc length: 4261 seconds
# Revision: 0
# Processed by: cddbd v1.5.2PL0 Copyright (c) Steve Scherf et al.
# Submitted via: dBpowerAMP V12.0
#
DISCID=1b10a314
DTITLE=Various Artist - Country Radio January 2009
DYEAR=2009
DGENRE=Country
TTITLE0=Martina McBride - Ride
TTITLE1=Emerson Drive - Belongs To You
TTITLE2=George Strait - River Of Love
TTITLE3=Keith Urban - Sweet Things
TTITLE4=JR Vautour - Why Me
TTITLE5=One More Girl - I Can Love Anyone
TTITLE6=Mark Chesnutt - Come On In The Whiskey`s Fine
TTITLE7=Bucky Covington - I`ll Walk
TTITLE8=Kevin Fowler - Cheaper To Keep Her
TTITLE9=Trews The - Man Of Two Minds (Country Edit)
TTITLE10=Cowboy Crush - He`s Coming Home
TTITLE11=Kellie Pickler - Best Days Of Your Lives
TTITLE12=Tracy Millar - The L Word
TTITLE13=Heidi Newfield - Cry Cry Til The Sun Shines
TTITLE14=Jason Aldean - She`s Country
TTITLE15=Rodney Atkins - It`s America
TTITLE16=Carolina Rain - Weight Of The World
TTITLE17=Doc Walker - One Last Sundown
TTITLE18=Codie Prevost - Call Me When You Get There
TTITLE19=Misty Lee Olsen - A Little Bit Of Love
EXTD=
EXTT0=
EXTT1=
EXTT2=
EXTT3=
EXTT4=
EXTT5=
EXTT6=
EXTT7=
EXTT8=
EXTT9=
EXTT10=
EXTT11=
EXTT12=
EXTT13=
EXTT14=
EXTT15=
EXTT16=
EXTT17=
EXTT18=
EXTT19=
PLAYORDER=
